<svg width="24" height="24" viewBox="0 0 24 24" fill="none" xmlns="http://www.w3.org/2000/svg">
<path d="M6.95163 4.75781C6.60007 4.85156 6.34694 4.99219 6.09851 5.22656C5.98132 5.33906 5.34382 6.10313 4.68757 6.92813L3.49226 8.42813L2.48444 8.44688C1.49538 8.46094 1.47194 8.46094 1.19069 8.59219C0.829755 8.76094 0.511005 9.07969 0.342255 9.44531L0.211005 9.72656L0.196943 10.9359C0.187568 11.6906 0.20163 12.2391 0.234443 12.3938C0.356318 12.9797 0.778193 13.5563 1.26569 13.8047C1.65476 14.0016 1.98288 14.0625 2.65788 14.0625C3.23444 14.0625 3.28132 14.0672 3.28132 14.1516C3.28132 14.3438 3.62819 14.9344 3.90944 15.2109C4.87976 16.1719 6.37038 16.1719 7.34069 15.2109C7.62194 14.9344 7.96882 14.3438 7.96882 14.1516C7.96882 14.0672 8.10476 14.0625 12.3751 14.0625C16.6454 14.0625 16.7813 14.0672 16.7813 14.1516C16.7813 14.3438 17.1282 14.9344 17.4094 15.2109C18.3798 16.1719 19.8704 16.1719 20.8407 15.2109C21.1173 14.9344 21.4688 14.3438 21.4688 14.1563C21.4688 14.0813 21.5298 14.0719 21.9985 14.0531C22.4485 14.0391 22.561 14.0203 22.8048 13.9078C23.1704 13.7391 23.4891 13.4203 23.6579 13.0594L23.7891 12.7734V11.5313V10.2891L23.6673 10.0313C23.4938 9.67031 23.2548 9.41719 22.9266 9.23906C22.6266 9.07969 22.6688 9.08906 19.4251 8.60156L18.2438 8.42344L16.186 6.73125C15.0516 5.79844 14.0391 4.99219 13.936 4.93594C13.5001 4.69219 13.4298 4.6875 10.1954 4.69219C7.76726 4.69219 7.14851 4.70625 6.95163 4.75781ZM7.68757 7.125V8.4375H6.30476H4.92194L5.77038 7.36875C6.23913 6.78281 6.68913 6.23438 6.76882 6.14531C6.95632 5.94375 7.23288 5.8125 7.49069 5.8125H7.68757V7.125ZM9.94694 7.52344L9.96101 9.23438L10.1157 9.38438L10.2657 9.53906L14.4282 9.5625L18.586 9.59063L20.4282 9.88125C21.4407 10.0406 22.3313 10.2047 22.4063 10.2422C22.6735 10.3781 22.6923 10.4906 22.6782 11.6016L22.6641 12.6094L22.5094 12.7594C22.3641 12.9094 22.3454 12.9141 21.9141 12.9281C21.4969 12.9469 21.4688 12.9422 21.4688 12.8531C21.4688 12.6563 21.1219 12.0703 20.8407 11.7891C19.8704 10.8281 18.3798 10.8281 17.4094 11.7891C17.1282 12.0656 16.7813 12.6563 16.7813 12.8484C16.7813 12.9328 16.6454 12.9375 12.3751 12.9375C8.10476 12.9375 7.96882 12.9328 7.96882 12.8484C7.96882 12.6563 7.62194 12.0656 7.34069 11.7891C6.37038 10.8281 4.87976 10.8281 3.90944 11.7891C3.62819 12.0703 3.28132 12.6563 3.28132 12.8531C3.28132 12.9422 3.25319 12.9469 2.61569 12.9281C2.00632 12.9141 1.92663 12.9047 1.76726 12.8016C1.66882 12.7406 1.53288 12.6047 1.46257 12.5016L1.33601 12.3094V11.1V9.89063L1.49069 9.74063L1.64069 9.58594L5.06257 9.5625L8.48444 9.53906L8.63444 9.38438L8.78913 9.23438L8.80319 7.52344L8.81726 5.8125H9.37507H9.93288L9.94694 7.52344ZM13.336 5.90156C13.4813 5.97188 16.0923 8.07188 16.4063 8.37188C16.4626 8.42813 16.0969 8.4375 13.7673 8.4375H11.0626V7.125V5.8125H12.1079C13.0266 5.8125 13.1719 5.82656 13.336 5.90156ZM6.04694 12.2625C6.39851 12.3656 6.74538 12.7219 6.86257 13.0969C7.27507 14.4094 5.67663 15.3797 4.70163 14.4094C4.18132 13.8891 4.18132 13.1109 4.71101 12.5859C5.07663 12.2156 5.52663 12.1078 6.04694 12.2625ZM19.5469 12.2625C19.8985 12.3656 20.2454 12.7219 20.3626 13.0969C20.7751 14.4094 19.1766 15.3797 18.2016 14.4094C17.6813 13.8891 17.6813 13.1109 18.211 12.5859C18.5766 12.2156 19.0266 12.1078 19.5469 12.2625Z" fill="white"/>
<path d="M10.2891 9.97969C10.0828 10.0688 9.96094 10.2609 9.96094 10.5047C9.96094 10.7016 9.98438 10.7531 10.1156 10.8844L10.2656 11.0391H10.875H11.4844L11.6344 10.8844C11.7656 10.7531 11.7891 10.7016 11.7891 10.5C11.7891 10.2984 11.7656 10.2469 11.6344 10.1156L11.4844 9.96094L10.9313 9.95156C10.6313 9.94219 10.3406 9.95625 10.2891 9.97969Z" fill="white"/>
<path d="M5.33455 13.0125C5.07205 13.1531 4.98299 13.5422 5.15174 13.8C5.4658 14.2734 6.18768 14.0625 6.18768 13.5C6.18768 13.0688 5.72361 12.8016 5.33455 13.0125Z" fill="white"/>
<path d="M18.8346 13.0125C18.5721 13.1531 18.483 13.5422 18.6517 13.8C18.9658 14.2734 19.6877 14.0625 19.6877 13.5C19.6877 13.0688 19.2236 12.8016 18.8346 13.0125Z" fill="white"/>
</svg>
