<svg width="30" height="30" viewBox="0 0 30 30" fill="none" xmlns="http://www.w3.org/2000/svg">
<path d="M17.4745 11.5066V15.0948H20.6915C20.9389 15.0948 21.0627 15.3422 21.0627 15.5897L20.5677 17.9405C20.5677 18.0643 20.3203 18.188 20.1966 18.188H17.4745V27.2202H13.7627V18.3117H11.6593C11.4118 18.3117 11.2881 18.188 11.2881 17.9405V15.5897C11.2881 15.3422 11.4118 15.2185 11.6593 15.2185H13.7627V11.1354C13.7627 9.03206 15.3711 7.42358 17.4745 7.42358H20.8152C21.0627 7.42358 21.1864 7.54731 21.1864 7.79477V10.7643C21.1864 11.0117 21.0627 11.1354 20.8152 11.1354H17.8457C17.5983 11.1354 17.4745 11.2592 17.4745 11.5066Z" stroke="#3C6178" stroke-width="1.85593" stroke-miterlimit="10" stroke-linecap="round"/>
<path d="M18.7118 27.2204H11.2881C5.10165 27.2204 2.62708 24.7458 2.62708 18.5594V11.1356C2.62708 4.94919 5.10165 2.47461 11.2881 2.47461H18.7118C24.8983 2.47461 27.3728 4.94919 27.3728 11.1356V18.5594C27.3728 24.7458 24.8983 27.2204 18.7118 27.2204Z" stroke="#3C6178" stroke-width="1.85593" stroke-linecap="round" stroke-linejoin="round"/>
</svg>
